<svg width="712" height="712" viewBox="0 0 712 712" fill="none" xmlns="http://www.w3.org/2000/svg">
<path fill-rule="evenodd" clip-rule="evenodd" d="M712 350C712 156.7 555.3 0 362 0H350C156.7 0 0 156.7 0 350V562C0 644.843 67.1573 712 150 712H562C644.843 712 712 644.843 712 562V350ZM612 356V564C612 590.51 590.51 612 564 612C537.49 612 516 590.51 516 564V356C516 269.844 446.156 200 360 200H352C265.844 200 196 269.844 196 356V564C196 590.51 174.51 612 148 612C121.49 612 100 590.51 100 564V356C100 214.615 214.615 100 356 100C497.385 100 612 214.615 612 356Z" fill="#EF6950"/>
</svg>
