<svg width="16" height="18" viewBox="0 0 16 18" fill="none" xmlns="http://www.w3.org/2000/svg">
<path d="M12.5 17.2125C11.675 17.2125 10.975 16.925 10.4 16.35C9.825 15.7625 9.5375 15.0625 9.5375 14.25C9.5375 14.15 9.54375 14.05 9.55625 13.95C9.58125 13.8375 9.6 13.7375 9.6125 13.65L5.4125 11.2312C5.15 11.4687 4.85625 11.6562 4.53125 11.7937C4.20625 11.9187 3.8625 11.9812 3.5 11.9812C2.6875 11.9812 1.9875 11.6875 1.4 11.1C0.8125 10.5125 0.51875 9.8125 0.51875 9C0.51875 8.175 0.80625 7.475 1.38125 6.9C1.96875 6.325 2.675 6.0375 3.5 6.0375C3.8625 6.0375 4.20625 6.1 4.53125 6.225C4.85625 6.3375 5.15 6.5125 5.4125 6.75L9.6125 4.33125C9.6 4.24375 9.58125 4.15 9.55625 4.05C9.53125 3.9375 9.51875 3.8375 9.51875 3.75C9.51875 2.925 9.80625 2.225 10.3813 1.65C10.9688 1.075 11.675 0.787499 12.5 0.787499C13.325 0.787499 14.025 1.08125 14.6 1.66875C15.1875 2.24375 15.4813 2.9375 15.4813 3.75C15.4813 4.575 15.1875 5.275 14.6 5.85C14.025 6.425 13.325 6.7125 12.5 6.7125C12.1375 6.7125 11.7938 6.65625 11.4688 6.54375C11.1563 6.43125 10.8688 6.25625 10.6063 6.01875L6.40625 8.4C6.41875 8.5 6.43125 8.6 6.44375 8.7C6.46875 8.8 6.48125 8.9 6.48125 9C6.48125 9.0875 6.46875 9.1875 6.44375 9.3C6.43125 9.4 6.41875 9.49375 6.40625 9.58125L10.6063 11.9625C10.8688 11.7375 11.1563 11.5687 11.4688 11.4562C11.7938 11.3312 12.1375 11.2687 12.5 11.2687C13.3125 11.2687 14.0125 11.5625 14.6 12.15C15.1875 12.7375 15.4813 13.4375 15.4813 14.25C15.4813 15.0625 15.1875 15.7625 14.6 16.35C14.025 16.925 13.325 17.2125 12.5 17.2125Z" fill="currentColor"/>
</svg>
