<svg width="12" height="12" viewBox="0 0 12 12" fill="none" xmlns="http://www.w3.org/2000/svg">
<path d="M6 11.1333C5.68889 11.1333 5.41667 11.0222 5.18333 10.8C4.95 10.5667 4.83333 10.2889 4.83333 9.96667V7.16667H2.01667C1.70556 7.16667 1.43333 7.05 1.2 6.81667C0.966667 6.58333 0.85 6.31111 0.85 6C0.85 5.67778 0.966667 5.40556 1.2 5.18333C1.43333 4.95 1.70556 4.83333 2.01667 4.83333H4.83333V2.01667C4.83333 1.69444 4.95 1.42222 5.18333 1.2C5.41667 0.966666 5.68889 0.849999 6 0.849999C6.31111 0.849999 6.58333 0.966666 6.81667 1.2C7.05 1.42222 7.16667 1.69444 7.16667 2.01667V4.83333H9.98333C10.2944 4.83333 10.5667 4.95 10.8 5.18333C11.0333 5.40556 11.15 5.67778 11.15 6C11.15 6.31111 11.0333 6.58333 10.8 6.81667C10.5667 7.05 10.2944 7.16667 9.98333 7.16667H7.16667V9.96667C7.16667 10.2889 7.05 10.5667 6.81667 10.8C6.58333 11.0222 6.31111 11.1333 6 11.1333Z" fill="currentColor"/>
</svg>
