<svg width="24" height="24" viewBox="0 0 24 24" fill="none" xmlns="http://www.w3.org/2000/svg">
<path d="M11.225 23.25C9.75833 23.1667 8.38333 22.8167 7.1 22.2C5.81667 21.5667 4.7 20.75 3.75 19.75C2.81667 18.7333 2.075 17.5667 1.525 16.25C0.991667 14.9167 0.725 13.5 0.725 12C0.725 10.45 1.01667 8.99167 1.6 7.625C2.2 6.24167 3.00833 5.04167 4.025 4.025C5.05833 2.99167 6.25833 2.18333 7.625 1.6C9.00833 0.999999 10.475 0.699999 12.025 0.699999C14.7917 0.699999 17.2 1.575 19.25 3.325C21.3167 5.05833 22.6083 7.24167 23.125 9.875H19.675C19.3583 8.69167 18.7917 7.64167 17.975 6.725C17.1583 5.80833 16.1667 5.125 15 4.675V5.025C15 5.575 14.8 6.04167 14.4 6.425C14 6.80833 13.525 7 12.975 7H11.025V9C11.025 9.26667 10.925 9.5 10.725 9.7C10.5417 9.88333 10.3083 9.975 10.025 9.975H8.025V11.95H9.775V14.9H9.025L4.325 10.2C4.275 10.5 4.225 10.7917 4.175 11.075C4.14167 11.3583 4.125 11.65 4.125 11.95C4.125 14 4.8 15.7833 6.15 17.3C7.5 18.8167 9.19167 19.675 11.225 19.875V23.25ZM20.025 21.425L18 19.4C17.6667 19.55 17.325 19.675 16.975 19.775C16.625 19.8583 16.2583 19.9 15.875 19.9C14.475 19.9 13.2833 19.4167 12.3 18.45C11.3333 17.4667 10.85 16.275 10.85 14.875C10.85 13.475 11.3333 12.2917 12.3 11.325C13.2833 10.3583 14.475 9.875 15.875 9.875C17.275 9.875 18.4583 10.3583 19.425 11.325C20.3917 12.2917 20.875 13.475 20.875 14.875C20.875 15.2583 20.825 15.6333 20.725 16C20.6417 16.35 20.525 16.6917 20.375 17.025L22.4 19.05C22.7667 19.4 22.95 19.8 22.95 20.25C22.95 20.6833 22.775 21.075 22.425 21.425C22.0917 21.7417 21.6917 21.9083 21.225 21.925C20.7583 21.925 20.3583 21.7583 20.025 21.425ZM15.875 16.5C16.3083 16.5 16.6833 16.3417 17 16.025C17.3167 15.7083 17.475 15.325 17.475 14.875C17.475 14.4417 17.3167 14.0667 17 13.75C16.6833 13.4333 16.3083 13.275 15.875 13.275C15.4417 13.275 15.0583 13.4333 14.725 13.75C14.4083 14.0667 14.25 14.4417 14.25 14.875C14.25 15.3083 14.4083 15.6917 14.725 16.025C15.0417 16.3417 15.425 16.5 15.875 16.5Z" fill="currentColor"/>
</svg>
