<svg width="22" height="20" viewBox="0 0 22 20" fill="none" xmlns="http://www.w3.org/2000/svg">
<path d="M16.9 19.075L12.625 14.8L15.425 11.975L19.725 16.275C20.1083 16.6583 20.3 17.125 20.3 17.675C20.3 18.225 20.1083 18.6917 19.725 19.075C19.325 19.475 18.85 19.675 18.3 19.675C17.7667 19.675 17.3 19.475 16.9 19.075ZM2.65 19.075C2.26667 18.6917 2.075 18.225 2.075 17.675C2.075 17.1083 2.26667 16.6333 2.65 16.25L8.35 10.55L6.6 8.8C6.38333 8.95 6.10833 9.01667 5.775 9C5.45833 8.96667 5.2 8.85833 5 8.675L4.875 8.575V10.3V10.325C4.625 10.5583 4.31667 10.675 3.95 10.675C3.6 10.675 3.3 10.5583 3.05 10.325L1.05 8.3C0.8 8.06667 0.675 7.76667 0.675 7.4C0.675 7.03333 0.8 6.73333 1.05 6.5V6.475H2.8L2.675 6.375C2.54167 5.99167 2.5 5.60833 2.55 5.225C2.61667 4.84167 2.76667 4.53333 3 4.3L5.9 1.45C6.28333 1.06667 6.70833 0.783332 7.175 0.599999C7.65833 0.416666 8.14167 0.324999 8.625 0.324999C9.125 0.324999 9.61667 0.424999 10.1 0.624999C10.6 0.808332 11.0333 1.08333 11.4 1.45L8.85 3.975L8.925 4.05C9.225 4.35 9.40833 4.675 9.475 5.025C9.55833 5.375 9.525 5.69167 9.375 5.975L11.175 7.75L13.475 5.45C13.425 5.3 13.3833 5.125 13.35 4.925C13.3333 4.725 13.325 4.54167 13.325 4.375C13.325 3.25833 13.7083 2.30833 14.475 1.525C15.2583 0.741665 16.2083 0.349998 17.325 0.349998C17.675 0.349998 18.0083 0.391665 18.325 0.474999C18.6583 0.558332 18.9833 0.691666 19.3 0.874999L16.725 3.475L18.25 5L20.85 2.375C21.0667 2.675 21.2 3 21.25 3.35C21.3167 3.68333 21.35 4.025 21.35 4.375C21.35 5.49167 20.9667 6.44167 20.2 7.225C19.4333 7.99167 18.4833 8.375 17.35 8.375C17.1833 8.375 17.0083 8.35833 16.825 8.325C16.6583 8.29167 16.5 8.25833 16.35 8.225L5.5 19.075C5.1 19.475 4.625 19.675 4.075 19.675C3.525 19.675 3.05 19.475 2.65 19.075Z" fill="currentColor"/>
</svg>
