<svg width="4" height="7" viewBox="0 0 4 7" fill="none" xmlns="http://www.w3.org/2000/svg">
<path d="M2.63551 5.02804C2.79751 4.86604 2.98442 4.78505 3.19626 4.78505C3.4081 4.78505 3.59502 4.86604 3.75701 5.02804C3.919 5.19003 4 5.37695 4 5.58878C4 5.80062 3.919 5.98754 3.75701 6.14953C3.59502 6.31153 3.4081 6.39252 3.19626 6.39252C2.98442 6.39252 2.79751 6.31153 2.63551 6.14953C2.47352 5.98754 2.39252 5.80062 2.39252 5.58878C2.39252 5.37695 2.47352 5.19003 2.63551 5.02804ZM2.63551 2.63551C2.79751 2.47352 2.98442 2.39252 3.19626 2.39252C3.4081 2.39252 3.59502 2.47352 3.75701 2.63551C3.919 2.79751 4 2.98442 4 3.19626C4 3.4081 3.919 3.59502 3.75701 3.75701C3.59502 3.919 3.4081 4 3.19626 4C2.98442 4 2.79751 3.919 2.63551 3.75701C2.47352 3.59502 2.39252 3.4081 2.39252 3.19626C2.39252 2.98442 2.47352 2.79751 2.63551 2.63551ZM3.75701 1.36449C3.59502 1.52648 3.4081 1.60748 3.19626 1.60748C2.98442 1.60748 2.79751 1.52648 2.63551 1.36449C2.47352 1.20249 2.39252 1.01558 2.39252 0.803738C2.39252 0.5919 2.47352 0.404984 2.63551 0.242991C2.79751 0.0809969 2.98442 0 3.19626 0C3.4081 0 3.59502 0.0809969 3.75701 0.242991C3.919 0.404984 4 0.5919 4 0.803738C4 1.01558 3.919 1.20249 3.75701 1.36449ZM0.242991 0.242991C0.404984 0.0809969 0.5919 0 0.803738 0C1.01558 0 1.20249 0.0809969 1.36449 0.242991C1.52648 0.404984 1.60748 0.5919 1.60748 0.803738C1.60748 1.01558 1.52648 1.20249 1.36449 1.36449C1.20249 1.52648 1.01558 1.60748 0.803738 1.60748C0.5919 1.60748 0.404984 1.52648 0.242991 1.36449C0.0809969 1.20249 0 1.01558 0 0.803738C0 0.5919 0.0809969 0.404984 0.242991 0.242991ZM0.242991 2.63551C0.404984 2.47352 0.5919 2.39252 0.803738 2.39252C1.01558 2.39252 1.20249 2.47352 1.36449 2.63551C1.52648 2.79751 1.60748 2.98442 1.60748 3.19626C1.60748 3.4081 1.52648 3.59502 1.36449 3.75701C1.20249 3.919 1.01558 4 0.803738 4C0.5919 4 0.404984 3.919 0.242991 3.75701C0.0809969 3.59502 0 3.4081 0 3.19626C0 2.98442 0.0809969 2.79751 0.242991 2.63551ZM1.36449 5.02804C1.52648 5.19003 1.60748 5.37695 1.60748 5.58878C1.60748 5.80062 1.52648 5.98754 1.36449 6.14953C1.20249 6.31153 1.01558 6.39252 0.803738 6.39252C0.5919 6.39252 0.404984 6.31153 0.242991 6.14953C0.0809969 5.98754 0 5.80062 0 5.58878C0 5.37695 0.0809969 5.19003 0.242991 5.02804C0.404984 4.86604 0.5919 4.78505 0.803738 4.78505C1.01558 4.78505 1.20249 4.86604 1.36449 5.02804Z" fill="currentColor"/>
</svg>
