<svg width="18" height="18" viewBox="0 0 18 18" fill="none" xmlns="http://www.w3.org/2000/svg">
<path d="M10.6688 17.3625H7.33125C7.00625 17.3625 6.71875 17.2562 6.46875 17.0437C6.21875 16.8312 6.06875 16.5562 6.01875 16.2187L5.83125 14.7562C5.83125 14.7187 5.80625 14.6875 5.75625 14.6625C5.70625 14.6375 5.66875 14.625 5.64375 14.625L4.275 15.225C3.9625 15.3625 3.65 15.375 3.3375 15.2625C3.025 15.1375 2.7875 14.925 2.625 14.625L0.9375 11.6625C0.775 11.375 0.725 11.075 0.7875 10.7625C0.8625 10.45 1.025 10.1937 1.275 9.99375L2.4 9.1125C2.4125 9.1 2.41875 9.08125 2.41875 9.05625C2.43125 9.01875 2.4375 8.99375 2.4375 8.98125C2.4375 8.96875 2.43125 8.95 2.41875 8.925C2.41875 8.9 2.4125 8.88125 2.4 8.86875L1.275 8.00625C1.025 7.79375 0.8625 7.53125 0.7875 7.21875C0.725 6.90625 0.775 6.6 0.9375 6.3L2.625 3.375C2.8 3.1 3.0375 2.9 3.3375 2.775C3.65 2.65 3.95625 2.65625 4.25625 2.79375L5.64375 3.375C5.68125 3.3875 5.71875 3.38125 5.75625 3.35625C5.80625 3.33125 5.8375 3.3 5.85 3.2625L6.01875 1.7625C6.05625 1.425 6.2 1.15 6.45 0.9375C6.7125 0.724999 7.00625 0.618749 7.33125 0.618749H10.6688C10.9938 0.618749 11.2813 0.724999 11.5313 0.9375C11.7938 1.15 11.9438 1.425 11.9813 1.7625L12.15 3.2625C12.1625 3.3 12.1938 3.33125 12.2438 3.35625C12.3063 3.38125 12.3563 3.39375 12.3938 3.39375L13.725 2.79375C14.0375 2.65625 14.35 2.65 14.6625 2.775C14.975 2.8875 15.2125 3.0875 15.375 3.375L17.1 6.3C17.2625 6.6 17.3125 6.90625 17.25 7.21875C17.1875 7.53125 17.0188 7.79375 16.7438 8.00625L15.5813 8.86875C15.5688 8.88125 15.5625 8.90625 15.5625 8.94375C15.5625 8.96875 15.5625 8.9875 15.5625 9C15.5625 9.0125 15.5563 9.0375 15.5438 9.075C15.5438 9.1 15.5563 9.11875 15.5813 9.13125L16.7438 9.99375C17.0063 10.2062 17.1688 10.4687 17.2313 10.7812C17.2938 11.0812 17.2438 11.3812 17.0813 11.6812L15.3563 14.6625C15.1938 14.9625 14.9563 15.1687 14.6438 15.2812C14.3438 15.3812 14.0375 15.3625 13.725 15.225L12.3188 14.625C12.2938 14.6125 12.2625 14.625 12.225 14.6625C12.1875 14.6875 12.1688 14.7125 12.1688 14.7375L11.9813 16.2187C11.9313 16.5562 11.7813 16.8312 11.5313 17.0437C11.2813 17.2562 10.9938 17.3625 10.6688 17.3625ZM8.925 11.8687C9.725 11.8687 10.4063 11.5875 10.9688 11.025C11.5313 10.4625 11.8125 9.78125 11.8125 8.98125C11.8125 8.19375 11.5313 7.51875 10.9688 6.95625C10.4063 6.38125 9.725 6.09375 8.925 6.09375C8.1375 6.09375 7.45625 6.38125 6.88125 6.95625C6.31875 7.51875 6.0375 8.19375 6.0375 8.98125C6.0375 9.78125 6.31875 10.4625 6.88125 11.025C7.45625 11.5875 8.1375 11.8687 8.925 11.8687Z" fill="currentColor"/>
</svg>
